<svg width="82" height="73" viewBox="0 0 82 73" fill="none" xmlns="http://www.w3.org/2000/svg">
<path d="M63.3136 36.4869C73.3963 36.4869 81.57 44.6605 81.57 54.7433C81.57 64.826 73.3963 72.9997 63.3136 72.9997C54.628 72.9997 47.3591 66.9344 45.5114 58.8082H36.489C34.6413 66.9344 27.3724 72.9997 18.6868 72.9997C8.60405 72.9997 0.430374 64.826 0.430374 54.7433C0.430374 44.6605 8.60405 36.4869 18.6868 36.4869C28.0843 36.4869 35.8234 43.5873 36.8319 52.716H45.1685C46.177 43.5873 53.9161 36.4869 63.3136 36.4869ZM18.6868 42.5723C11.965 42.5723 6.51585 48.0215 6.51585 54.7433C6.51585 61.4651 11.965 66.9142 18.6868 66.9142C25.4086 66.9142 30.8577 61.4651 30.8577 54.7433C30.8577 48.0215 25.4086 42.5723 18.6868 42.5723ZM63.3136 42.5723C56.5918 42.5723 51.1427 48.0215 51.1427 54.7433C51.1427 61.4651 56.5918 66.9142 63.3136 66.9142C70.0354 66.9142 75.4846 61.4651 75.4846 54.7433C75.4846 48.0215 70.0354 42.5723 63.3136 42.5723ZM41.0002 25.3302C54.7507 25.3302 67.4927 26.7077 79.2242 29.468C80.86 29.8529 81.874 31.491 81.4891 33.1268C81.1042 34.7626 79.4662 35.7766 77.8304 35.3917C66.5723 32.7428 54.2963 31.4156 41.0002 31.4156C27.7041 31.4156 15.4281 32.7428 4.17002 35.3917C2.53423 35.7766 0.896149 34.7626 0.511258 33.1268C0.126367 31.491 1.14042 29.8529 2.7762 29.468C14.5077 26.7077 27.2497 25.3302 41.0002 25.3302ZM56.0121 0.988281C60.1617 0.988281 63.945 3.28833 65.8687 6.91792L66.2072 7.61382L72.1796 21.0517C72.8621 22.5873 72.1705 24.3854 70.6349 25.0679C69.2272 25.6935 67.599 25.1645 66.8117 23.8892L66.6186 23.5232L60.6462 10.0854C59.9063 8.42048 58.3381 7.29372 56.5534 7.10262L56.0121 7.07375H25.9883C24.1664 7.07375 22.4999 8.04916 21.6004 9.60244L21.3542 10.0854L15.3818 23.5232C14.6993 25.0588 12.9012 25.7504 11.3655 25.0679C9.95789 24.4423 9.25946 22.8792 9.67853 21.4402L9.82083 21.0517L15.7932 7.61382C17.4785 3.82182 21.1169 1.29871 25.2149 1.015L25.9883 0.988281H56.0121Z" fill="#7B7988"/>
</svg>
