<svg width="72" height="72" viewBox="0 0 72 72" fill="none" xmlns="http://www.w3.org/2000/svg">
<path d="M0 34.8313V34.7303C0.902932 22.9176 5.12197 14.0572 12.4515 8.45548C19.6814 2.75276 27.5153 0.00242675 36.0498 0.00242675C44.9859 -0.0985927 53.3212 2.9548 60.7535 9.06485C68.2854 15.0739 72 24.0353 72 35.6428V36.3564C72 48.0682 68.2854 56.8243 60.7535 62.8333C53.2216 68.9434 44.8863 72 35.9502 72H35.5485C26.8116 71.899 18.7784 68.8423 11.3493 62.7323C3.91699 56.7233 0.102825 47.4555 0.00321328 34.8281L0 34.8313ZM33.8391 18.8442V2.75276H31.4291C30.9278 3.3654 30.5262 4.07579 30.1245 4.68843C29.7229 5.30106 29.3212 5.91044 28.9195 6.62409C28.5179 7.23673 28.0166 8.0514 27.7146 8.66078C27.3129 9.27341 27.0108 9.88279 26.7088 10.5964C26.1047 11.6164 25.6034 12.6331 25.2018 13.5488C24.7005 14.4645 24.2988 15.3835 23.9968 16.1981C24.6009 16.6055 25.3014 17.1138 26.1047 17.4201C27.0076 17.7265 27.9138 18.0328 28.8167 18.2348C29.8225 18.4401 30.7254 18.5411 31.5287 18.6422C32.4317 18.7432 33.235 18.8475 33.8391 18.8475V18.8442ZM38.0581 2.75602V18.7432C38.5594 18.7432 39.1635 18.8442 39.7644 18.7432C40.3685 18.7432 41.0689 18.6422 41.673 18.5379C42.7784 18.3326 44.083 18.0295 45.0888 17.7232C46.1941 17.3159 47.1967 16.8075 47.9004 16.1949C46.6954 13.2425 45.3908 10.8995 44.083 8.65752C42.7752 6.41554 41.2714 4.48313 39.6647 2.85378V2.75276H38.0581V2.75602ZM27.2133 3.67172V3.5707C26.5096 3.87701 25.8059 4.38537 25.0025 4.69169C24.2988 4.998 23.3959 5.40534 22.6922 5.81268C21.2848 6.52633 19.8806 7.341 18.4732 8.2567C17.1686 9.17239 15.8608 10.1924 14.7586 11.2091C15.1603 11.6164 15.6615 12.0237 16.0632 12.3301C16.4649 12.6364 16.9661 13.0437 17.4706 13.4511C17.8723 13.6564 18.3735 13.9594 18.878 14.3667C19.3793 14.6731 19.9834 15.0804 20.5843 15.4877C21.3876 13.6531 22.1909 11.7207 23.1967 9.98706C24.2024 8.15242 25.3046 6.42205 26.41 4.89373C26.5096 4.68843 26.6124 4.48639 26.8116 4.28109C26.9112 4.18007 27.0141 3.87701 27.2133 3.67172ZM57.9387 11.2058V11.1048C55.4291 9.16913 53.2184 7.53978 51.0108 6.52307C48.8033 5.50636 46.5926 4.48639 44.5843 3.67172C46.1909 5.30106 47.5983 7.33775 48.5013 9.27341C49.507 11.3101 50.5096 13.4478 51.3129 15.4845C51.7146 15.2792 52.2158 15.0771 52.8199 14.6698C53.3212 14.3635 54.0249 14.0572 54.629 13.7541C55.2331 13.3468 55.7344 12.9394 56.3353 12.5321C56.9394 12.0237 57.5402 11.6164 57.9419 11.2091L57.9387 11.2058ZM56.2324 33.9156H67.781C67.781 30.1486 66.9776 26.5836 65.4706 22.9176C64.0632 19.3525 62.0549 16.4002 59.5453 13.8551V13.7541C59.044 14.5688 58.3403 15.2824 57.6366 15.7908C56.8333 16.2992 56.1296 16.7065 55.3263 17.1138C54.825 17.4201 54.3205 17.8275 53.8193 18.0295C53.318 18.3358 52.6143 18.5379 52.113 18.8442C52.5147 19.6589 52.9163 20.5746 53.318 21.3892C53.62 22.3049 54.1213 23.3249 54.3237 24.2406C54.9278 25.8699 55.3295 27.6003 55.7312 29.3339C56.0332 30.8623 56.2324 32.4916 56.2324 33.9156ZM19.8838 18.8442V18.7432C19.0805 18.3358 18.1775 18.0295 17.4738 17.6222C16.7701 17.1138 16.0664 16.6022 15.4655 16.1949C14.8614 15.8886 14.2605 15.4812 13.7593 15.0739C13.258 14.6665 12.8563 14.2592 12.4547 13.8519C9.84228 16.3969 7.93681 19.2483 6.73182 22.6112C5.42723 25.971 4.52109 29.7413 4.11943 33.8146H16.4713C16.4713 30.9633 16.8729 28.2129 17.5767 25.4626C18.1807 22.6112 19.0805 20.4735 19.8838 18.8442ZM33.8391 33.8146V22.1029C33.0357 22.2039 32.03 22.2039 31.1271 22.1029C30.1213 22.0019 29.1188 21.6956 28.2158 21.3892C27.4125 21.1839 26.4067 20.9819 25.6034 20.6756C24.7005 20.4703 23.7943 20.0629 23.0939 19.6556C22.4898 20.6756 21.9885 21.8976 21.5868 23.2206C21.0856 24.4426 20.7835 25.7657 20.4815 26.9877C20.279 28.2097 20.1794 29.5327 20.0798 30.6537C19.9802 31.7747 19.8774 32.8957 19.8774 33.8114H33.8359L33.8391 33.8146ZM38.0581 22.3082V33.8146H52.9195C52.9195 33.202 52.9195 32.4916 52.8199 31.6769C52.6175 30.9633 52.5179 30.0476 52.4183 29.2329C52.1162 28.0109 51.8142 26.6879 51.4125 25.4659C51.0108 24.3449 50.6092 23.2239 50.1079 22.3082C49.9055 21.7998 49.7063 21.1872 49.5038 20.7799C49.2018 20.2715 48.8997 19.9652 48.7005 19.6589C47.5951 20.4735 46.0881 20.9819 44.2822 21.3892C42.576 21.7966 40.5677 22.2039 38.7586 22.3049H38.0549L38.0581 22.3082ZM16.4681 37.1743H4.11621C4.11621 38.9047 4.41826 40.8404 4.91953 43.1834C5.42081 45.6274 6.42656 47.8694 7.53193 50.3134C8.0332 51.5354 8.6373 52.7574 9.23818 53.9794C9.94189 55.1004 10.7452 56.3224 11.5485 57.4434C12.1526 57.0361 12.7535 56.7298 13.2548 56.4234C13.8589 56.1171 14.5594 55.7098 15.1635 55.4035C15.8672 55.0972 16.5709 54.7908 17.3742 54.3835C18.0779 54.0772 18.9809 53.6698 19.8838 53.2625C19.0805 50.7175 18.1775 48.2735 17.5734 45.5231C16.8697 42.8738 16.4681 40.2277 16.4681 37.2754V37.1743ZM33.8391 49.0881V37.1743H19.8806C19.8806 37.989 19.9802 39.211 20.1826 40.433C20.2822 41.655 20.5843 42.9781 20.7867 44.3044C21.1884 45.7317 21.4904 47.1557 21.8921 48.3777C22.2937 49.5997 22.6954 50.6197 23.0971 51.5354C24.9061 50.8218 26.712 50.3134 27.917 50.0071C29.2216 49.5997 30.4266 49.2934 31.6315 49.1924H32.7369C33.1386 49.0914 33.5402 49.0914 33.8423 49.0914L33.8391 49.0881ZM38.0581 37.1743V48.9871C38.7618 49.0881 39.5651 49.1924 40.3685 49.2934C41.2714 49.3944 42.3768 49.5997 43.2797 49.8018L44.7867 50.1081C45.288 50.3134 45.8921 50.4144 46.3934 50.5154C46.9975 50.7207 47.5983 50.8217 48.2024 51.0238C48.7037 51.2291 49.2082 51.3301 49.6099 51.5322C50.9145 48.1724 51.7178 45.4221 52.2223 43.0791C52.7235 40.8371 52.926 38.9047 52.926 37.2754V37.1743H38.0645H38.0581ZM67.781 37.2754V37.1743H56.2324V37.787C56.1328 39.7226 55.8308 41.9614 55.4291 44.3044C55.0275 46.5463 54.1245 49.1924 52.9195 52.4511C54.5262 53.2658 56.0332 54.0804 57.2382 54.8951C58.4432 55.7098 59.5485 56.6255 60.3519 57.4402C62.0581 55.7098 63.5651 53.3668 64.8697 50.3101C66.1743 47.3578 67.0805 44.3011 67.5817 41.0424C67.6814 40.4298 67.6813 39.8204 67.7842 39.2078V37.2721L67.781 37.2754ZM33.8391 68.233V52.3468C31.3295 52.7542 29.2184 53.2625 27.6117 53.6699C26.0051 54.0772 24.8001 54.4845 23.9968 54.8919C24.6009 56.4202 25.2018 57.7432 25.8059 58.9652C26.41 60.0862 27.1105 61.3082 27.7146 62.3249C27.917 62.7323 28.3186 63.1396 28.6175 63.648C28.9195 64.0553 29.1188 64.5637 29.4208 64.971C29.7229 65.4794 30.0249 66.092 30.3237 66.7014C30.7254 67.2097 31.0274 67.8224 31.4291 68.2297L33.8391 68.233ZM38.0581 68.233H40.3685C41.2714 67.5193 42.1775 66.5026 42.878 65.3816C43.6813 64.2606 44.5843 62.9376 45.1884 61.8166C45.8921 60.4936 46.5958 59.2715 47.1967 58.0495C47.7976 56.8275 48.302 55.7065 48.7037 54.8919C47.5983 54.4845 46.0913 54.0772 44.5875 53.6699C43.0837 53.2625 40.9726 52.8552 38.0613 52.4478V68.233H38.0581ZM57.9387 59.8842V59.7832C57.7362 59.4768 57.3346 59.0695 57.0357 58.7632C56.7369 58.4569 56.2324 58.0495 55.7312 57.7432C55.3295 57.4369 54.8282 57.1306 54.2241 56.8275C53.62 56.5245 52.8167 56.1139 52.1162 55.7065C51.7146 56.5212 51.0108 57.9485 50.0083 59.8809C49.1054 61.8166 47.4987 64.1596 45.4904 66.7046C48 66.2973 50.2107 65.3816 52.219 64.1596C54.4298 63.0386 56.3353 61.5103 57.9419 59.8809L57.9387 59.8842ZM20.5843 56.6255V56.5245C19.8806 56.9318 18.7752 57.4402 17.673 57.9518C16.4681 58.4601 15.1635 59.0728 13.9585 59.8874C14.6622 60.5001 15.3659 61.1094 15.9668 61.5168C16.5709 62.0251 17.2714 62.4325 17.8755 62.8398C18.9809 63.5535 20.2854 64.2671 21.59 64.8765C22.8946 65.4859 24.5013 66.0985 26.5096 66.7111C25.8059 65.8965 25.3046 64.8765 24.8033 64.0618C24.302 63.2472 23.698 62.4325 23.1967 61.6178C22.6954 60.8031 22.2937 59.8874 21.8921 59.0728C21.3908 58.2581 20.9892 57.4434 20.5875 56.6287L20.5843 56.6255Z" fill="#2893C9"/>
</svg>
