<svg width="48" height="48" viewBox="0 0 48 48" fill="none" xmlns="http://www.w3.org/2000/svg">
<path d="M17.451 34.959C18.8952 36.8996 20.7065 38.5376 22.782 39.78V33.792C20.9566 33.9121 19.1596 34.3055 17.451 34.959ZM15.033 36.093C14.0344 36.6539 13.0903 37.3067 12.213 38.043H12.153C14.8867 40.3564 18.2392 41.8168 21.795 42.243C19.1188 40.7116 16.8107 38.6123 15.033 36.093ZM13.875 25.311C14.061 27.972 14.817 30.477 16.017 32.703C18.1703 31.8155 20.4568 31.2943 22.782 31.161V25.311H13.872H13.875ZM11.244 25.311H5.67C5.95476 29.3639 7.58016 33.2068 10.29 36.234C11.331 35.334 12.459 34.536 13.656 33.855C12.2487 31.2129 11.4261 28.299 11.244 25.311ZM32.142 32.754C33.36 30.513 34.122 27.993 34.314 25.314H25.359V31.167C27.753 31.317 30.036 31.869 32.142 32.757V32.754ZM34.497 33.924C35.643 34.584 36.726 35.352 37.728 36.216C40.427 33.1919 42.0457 29.3574 42.33 25.314H36.945C36.7612 28.3273 35.926 31.2648 34.497 33.924ZM25.359 39.804C27.4358 38.5687 29.2501 36.9379 30.699 35.004C28.9896 34.3362 27.1895 33.9296 25.359 33.798V39.807V39.804ZM26.442 42.213C29.9123 41.7515 33.1774 40.3043 35.85 38.043H35.826C34.9795 37.3328 34.0709 36.7003 33.111 36.153C31.3502 38.6295 29.0753 40.6967 26.442 42.213ZM16.02 15.288C14.7872 17.5735 14.0559 20.0956 13.875 22.686H22.782V16.827C20.4582 16.6952 18.1727 16.1761 16.02 15.291V15.288ZM13.659 14.136C12.4623 13.4578 11.3349 12.664 10.293 11.766C7.58377 14.7924 5.95841 18.6341 5.673 22.686H11.244C11.4261 19.6957 12.2498 16.7797 13.659 14.136ZM22.779 8.22C20.7086 9.46104 18.9015 11.0959 17.46 13.032C19.1661 13.6826 20.96 14.0739 22.782 14.193V8.22H22.779ZM21.795 5.757C18.2478 6.18045 14.9022 7.6332 12.171 9.936H12.195C13.08 10.68 14.031 11.337 15.036 11.901C16.8135 9.38416 19.1205 7.28706 21.795 5.757ZM30.69 12.978C29.2423 11.0504 27.4312 9.42483 25.359 8.193V14.184C27.1864 14.0514 28.9835 13.6449 30.69 12.978ZM33.099 11.826C34.0578 11.2786 34.9655 10.646 35.811 9.936H35.829C33.1604 7.6874 29.9044 6.24885 26.445 5.79C29.0708 7.30201 31.3402 9.36169 33.099 11.829V11.826ZM34.314 22.686C34.1308 20.0713 33.3869 17.5267 32.133 15.225C29.9798 16.13 27.69 16.6675 25.359 16.815V22.686H34.314ZM36.945 22.686H42.33C42.0446 18.6341 40.4192 14.7924 37.71 11.766C36.7103 12.6294 35.6315 13.3967 34.488 14.058C35.886 16.656 36.753 19.578 36.945 22.689V22.686ZM24 45C18.4305 45 13.089 42.7875 9.15076 38.8492C5.21249 34.911 3 29.5695 3 24C3 18.4305 5.21249 13.089 9.15076 9.15076C13.089 5.21249 18.4305 3 24 3C29.5695 3 34.911 5.21249 38.8492 9.15076C42.7875 13.089 45 18.4305 45 24C45 29.5695 42.7875 34.911 38.8492 38.8492C34.911 42.7875 29.5695 45 24 45Z" fill="#E19F11"/>
</svg>
