<svg width="48" height="48" viewBox="0 0 48 48" fill="none" xmlns="http://www.w3.org/2000/svg">
<rect x="0.5" y="0.5" width="47" height="47" stroke="black"/>
<path fill-rule="evenodd" clip-rule="evenodd" d="M6 36C6 30.789 9.32162 26.3536 13.9631 24.696C15.2246 24.2454 16.5837 24 18 24C19.4163 24 20.7754 24.2454 22.0368 24.696C22.7222 24.9406 23.3786 25.246 24 25.6054C24.6214 25.246 25.2778 24.9406 25.9632 24.696C27.2246 24.2454 28.5836 24 30 24C31.4164 24 32.7754 24.2454 34.0368 24.696C38.6784 26.3536 42 30.789 42 36V42H31.5V39H39V36C39 31.0294 34.9706 27 30 27C28.8058 27 27.666 27.2326 26.6232 27.655C28.7136 29.8146 30 32.757 30 36V42H6V36ZM18 22.5C16.6221 22.5 15.331 22.1284 14.2214 21.48C11.9954 20.1792 10.5 17.7642 10.5 15C10.5 10.8579 13.8579 7.5 18 7.5C20.4534 7.5 22.6316 8.67802 24 10.4993C25.3684 8.67802 27.5466 7.5 30 7.5C34.1422 7.5 37.5 10.8579 37.5 15C37.5 17.7642 36.0046 20.1792 33.7786 21.48C32.669 22.1284 31.378 22.5 30 22.5C28.622 22.5 27.331 22.1284 26.2214 21.48C25.3552 20.9738 24.5998 20.299 24 19.5007C23.4002 20.2992 22.6448 20.9738 21.7786 21.48C20.669 22.1284 19.3779 22.5 18 22.5ZM27 36V39H9V36C9 31.0294 13.0294 27 18 27C22.9706 27 27 31.0294 27 36ZM22.5 15C22.5 17.4853 20.4852 19.5 18 19.5C15.5147 19.5 13.5 17.4853 13.5 15C13.5 12.5147 15.5147 10.5 18 10.5C20.4852 10.5 22.5 12.5147 22.5 15ZM30 10.5C27.5148 10.5 25.5 12.5147 25.5 15C25.5 17.4853 27.5148 19.5 30 19.5C32.4852 19.5 34.5 17.4853 34.5 15C34.5 12.5147 32.4852 10.5 30 10.5Z" fill="#E19F11"/>
</svg>
