<svg width="48" height="48" viewBox="0 0 48 48" fill="none" xmlns="http://www.w3.org/2000/svg">
<path d="M45.1762 26.8235C45.1762 38.5016 35.6778 48 23.9997 48C12.3216 48 2.82324 38.5016 2.82324 26.8235C2.82324 16.9468 9.8143 8.24753 19.4482 6.13835L20.0524 8.89694C11.7061 10.7238 5.64677 18.2626 5.64677 26.8235C5.64677 36.9431 13.8802 45.1765 23.9997 45.1765C34.1192 45.1765 42.3527 36.9431 42.3527 26.8235C42.3527 18.2739 36.3018 10.7351 27.9639 8.89977L28.571 6.14118C38.1936 8.26165 45.1762 16.9581 45.1762 26.8235ZM25.4115 0H22.5879V28.2353H25.4115V0Z" fill="#C31B1B"/>
</svg>
