<svg width="493" height="118" viewBox="0 0 493 118" fill="none" xmlns="http://www.w3.org/2000/svg">
<mask id="mask0_4_74" style="mask-type:alpha" maskUnits="userSpaceOnUse" x="0" y="0" width="359" height="102">
<path d="M11.8608 57.8803C11.8608 61.5579 9.93893 63.3967 6.09515 63.3967C4.22817 63.3967 2.74556 62.9301 1.64734 61.997C0.549111 61.0639 0 59.6917 0 57.8803V6.422C0 4.446 0.439289 2.88167 1.31787 1.729C2.25136 0.576332 3.78887 0 5.93041 0C8.07195 0 9.58201 0.576332 10.4606 1.729C11.3941 2.88167 11.8608 4.446 11.8608 6.422V57.8803ZM36.8561 63.3967C31.365 63.3967 27.0819 62.1342 24.0068 59.6093C20.9318 57.0296 19.3943 53.7088 19.3943 49.647C19.3943 44.8717 21.3986 41.4137 25.4071 39.273C29.4705 37.1323 35.4009 36.3913 43.1983 37.05C42.814 34.5251 42.0177 32.8236 40.8097 31.9453C39.6016 31.0122 38.1465 30.5457 36.4442 30.5457C35.0715 30.5457 33.9183 30.628 32.9848 30.7927C32.1063 30.9024 31.2826 31.0397 30.5138 31.2043C29.7451 31.369 28.8116 31.4513 27.7134 31.4513C26.2308 31.4513 25.0502 31.2043 24.1716 30.7103C23.293 30.1614 22.8537 29.0911 22.8537 27.4993C22.8537 25.2489 23.8147 23.6022 25.7366 22.5593C27.7134 21.4616 30.8158 20.9127 35.044 20.9127C41.7432 20.9127 46.7126 22.8338 49.9524 26.676C53.1922 30.4633 54.8121 35.5406 54.8121 41.9077C54.8121 49.2628 53.4667 54.6968 50.7761 58.2097C48.1403 61.6677 43.5003 63.3967 36.8561 63.3967ZM31.2551 49.647C31.2551 52.7757 33.3692 54.34 37.5974 54.34C38.9702 54.34 40.0409 54.093 40.8097 53.599C41.5784 53.105 42.1276 52.117 42.457 50.635C42.8414 49.153 43.116 46.93 43.2807 43.966C43.0061 44.2404 42.6492 44.4326 42.2099 44.5423C41.7706 44.6521 41.3313 44.707 40.8921 44.707C37.2679 44.707 34.742 45.0638 33.3143 45.7773C31.9415 46.436 31.2551 47.7259 31.2551 49.647ZM80.9357 63.3967C77.3116 63.3967 74.1267 62.6557 71.3812 61.1737C68.6356 59.6917 66.4941 57.6059 64.9566 54.9163C63.474 52.2268 62.7327 49.0981 62.7327 45.5303V26.2643C62.7327 22.5319 64.7095 20.6657 68.6631 20.6657C72.6167 20.6657 74.5935 22.5319 74.5935 26.2643V45.3657C74.5935 47.9454 75.1426 49.9489 76.2408 51.376C77.339 52.8031 78.904 53.5167 80.9357 53.5167C82.9675 53.5167 84.5324 52.8031 85.6306 51.376C86.7289 49.9489 87.278 47.9454 87.278 45.3657V26.2643C87.278 22.5319 89.2548 20.6657 93.2084 20.6657C97.162 20.6657 99.1388 22.5319 99.1388 26.2643V45.5303C99.1388 49.0981 98.3701 52.2268 96.8325 54.9163C95.3499 57.6059 93.2358 59.6917 90.4903 61.1737C87.7996 62.6557 84.6148 63.3967 80.9357 63.3967ZM113.546 63.3967C109.593 63.3967 107.616 61.5305 107.616 57.798V38.038C107.616 32.7687 109.291 28.5971 112.64 25.5233C116.045 22.4496 120.52 20.9127 126.066 20.9127C131.612 20.9127 136.06 22.4496 139.41 25.5233C142.814 28.5971 144.516 32.7687 144.516 38.038V57.798C144.516 61.5305 142.54 63.3967 138.586 63.3967C134.632 63.3967 132.656 61.5305 132.656 57.798V38.6967C132.656 36.1169 132.079 34.1683 130.926 32.851C129.773 31.4788 128.153 30.7927 126.066 30.7927C123.98 30.7927 122.36 31.4788 121.207 32.851C120.053 34.1683 119.477 36.1169 119.477 38.6967V57.798C119.477 61.5305 117.5 63.3967 113.546 63.3967Z" fill="black"/>
<path d="M174.261 62.3812C174.261 71.0904 175.322 77.3477 177.446 81.1532C179.569 84.8857 182.717 86.7519 186.89 86.7519C189.526 86.7519 191.832 86.5691 193.809 86.203C195.786 85.7639 197.58 85.5443 199.191 85.5443C202.119 85.5443 204.242 86.1663 205.56 87.4106C206.878 88.5814 207.537 90.1183 207.537 92.0212C207.537 94.5094 206.622 96.4123 204.792 97.7297C203.034 99.047 200.765 99.9619 197.983 100.474C195.274 100.986 192.491 101.243 189.636 101.243C181.729 101.243 175.432 99.7787 170.747 96.8515C166.134 93.9242 162.803 89.6061 160.753 83.8977C158.776 78.1162 157.787 70.9439 157.787 62.3812C157.787 53.8186 158.776 46.5732 160.753 40.6452C162.803 34.6442 166.134 30.1066 170.747 27.0328C175.432 23.959 181.729 22.4221 189.636 22.4221C192.491 22.4221 195.274 22.6784 197.983 23.1906C200.765 23.7027 203.034 24.6177 204.792 25.935C206.622 27.2523 207.537 29.1553 207.537 31.6435C207.537 33.473 206.878 35.0099 205.56 36.2541C204.242 37.4984 202.119 38.1203 199.191 38.1203C197.58 38.1203 195.786 37.9375 193.809 37.5715C191.832 37.1323 189.526 36.9128 186.89 36.9128C181.765 36.9128 178.361 38.9986 176.677 43.1701C175.066 47.2686 174.261 53.6721 174.261 62.3812ZM226.786 101.352C221.368 101.352 218.659 98.9005 218.659 93.9972V29.7772C218.659 27.2156 219.282 25.3494 220.526 24.1786C221.771 23.0077 223.748 22.4221 226.457 22.4221C231.801 22.4221 234.474 24.8739 234.474 29.7772V40.755C234.474 49.8299 234.217 55.2457 233.705 57.0021C235.608 55.0992 237.659 53.7819 239.855 53.0501C242.052 52.3184 244.943 51.9523 248.531 51.9523H259.294V29.7772C259.294 27.2156 259.916 25.3494 261.161 24.1786C262.405 23.0077 264.382 22.4221 267.091 22.4221C272.436 22.4221 275.108 24.8739 275.108 29.7772V93.9972C275.108 96.4854 274.486 98.3516 273.241 99.5959C272.069 100.767 270.129 101.352 267.421 101.352C262.002 101.352 259.294 98.9005 259.294 93.9972V61.503C258.854 62.8203 257.427 63.9181 255.011 64.7963C252.594 65.6015 249.775 66.0039 246.554 66.0039C241.942 66.0039 238.757 66.9552 237 68.8581C235.316 70.6876 234.474 74.0907 234.474 79.0674V93.9972C234.474 96.4854 233.851 98.3516 232.607 99.5959C231.435 100.767 229.495 101.352 226.786 101.352Z" fill="black"/>
<path d="M306.13 101.133C300.639 101.133 296.356 99.8703 293.281 97.3454C290.206 94.7656 288.668 91.4449 288.668 87.3831C288.668 82.6077 290.673 79.1498 294.681 77.0091C298.745 74.8684 304.675 74.1274 312.472 74.7861C312.088 72.2612 311.292 70.5596 310.084 69.6814C308.876 68.7483 307.421 68.2818 305.718 68.2818C304.346 68.2818 303.192 68.3641 302.259 68.5288C301.38 68.6385 300.557 68.7757 299.788 68.9404C299.019 69.1051 298.086 69.1874 296.987 69.1874C295.505 69.1874 294.324 68.9404 293.446 68.4464C292.567 67.8975 292.128 66.8272 292.128 65.2354C292.128 62.985 293.089 61.3383 295.011 60.2954C296.987 59.1976 300.09 58.6487 304.318 58.6487C311.017 58.6487 315.987 60.5699 319.227 64.4121C322.466 68.1994 324.086 73.2766 324.086 79.6438C324.086 86.9989 322.741 92.4329 320.05 95.9458C317.414 99.4038 312.774 101.133 306.13 101.133ZM300.529 87.3831C300.529 90.5117 302.643 92.0761 306.871 92.0761C308.244 92.0761 309.315 91.8291 310.084 91.3351C310.853 90.8411 311.402 89.8531 311.731 88.3711C312.116 86.8891 312.39 84.6661 312.555 81.7021C312.28 81.9765 311.923 82.1686 311.484 82.2784C311.045 82.3882 310.605 82.4431 310.166 82.4431C306.542 82.4431 304.016 82.7999 302.588 83.5134C301.216 84.1721 300.529 85.462 300.529 87.3831ZM349.579 101.133C344.472 101.133 340.683 99.9252 338.212 97.5101C335.796 95.095 334.588 91.39 334.588 86.3951V69.2697H332.446C328.712 69.2697 326.845 67.5956 326.845 64.2474C326.845 60.9541 328.712 59.3074 332.446 59.3074H334.588V50.4154C334.588 48.6041 335.137 47.1221 336.235 45.9694C337.388 44.8167 338.871 44.2404 340.683 44.2404C342.44 44.2404 343.84 44.7893 344.884 45.8871C345.927 46.93 346.449 48.3845 346.449 50.2508V54.2851C346.449 56.316 346.119 57.9901 345.46 59.3074H353.285C357.019 59.3074 358.886 60.9541 358.886 64.2474C358.886 67.5956 357.019 69.2697 353.285 69.2697H346.449V86.6421C346.449 88.2887 346.641 89.4689 347.025 90.1824C347.41 90.8411 348.041 91.1704 348.92 91.1704C350.073 91.1704 350.924 91.0881 351.473 90.9234C352.077 90.7039 352.818 90.5941 353.697 90.5941C355.18 90.5941 356.36 90.8685 357.239 91.4174C358.117 91.9114 358.557 92.9543 358.557 94.5461C358.557 96.7965 357.843 98.4706 356.415 99.5684C354.987 100.611 352.709 101.133 349.579 101.133Z" fill="black"/>
</mask>
<g mask="url(#mask0_4_74)">
<path d="M-417.188 173.562L461.076 -458.706L709.285 -114.211L-168.982 518.059L-417.188 173.562Z" fill="#930885"/>
</g>
<mask id="mask1_4_74" style="mask-type:luminance" maskUnits="userSpaceOnUse" x="382" y="7" width="111" height="111">
<path d="M492.279 7.84912H382.457V117.627H492.279V7.84912Z" fill="white"/>
</mask>
<g mask="url(#mask1_4_74)">
<path d="M419 109.129C419 109.787 419.364 110.39 419.947 110.698C420.527 111.005 421.234 110.965 421.777 110.594L433.998 102.252L419 95.1063V109.129Z" fill="#930885"/>
<path d="M491.71 15.044C491.373 14.7346 490.941 14.5727 490.502 14.5727C490.237 14.5727 489.973 14.6313 489.726 14.7538L384.211 66.4907C383.133 67.0204 382.45 68.1212 382.457 69.3254C382.464 70.5281 383.16 71.6214 384.245 72.1394L412.054 85.3845L467.655 39.7018L418.942 88.6658L453.587 105.166C454.013 105.37 454.476 105.471 454.936 105.471C455.328 105.471 455.715 105.399 456.086 105.254C456.892 104.935 457.534 104.297 457.853 103.49L492.152 16.9988C492.427 16.3181 492.248 15.5401 491.71 15.044Z" fill="#930885"/>
</g>
</svg>
