<svg width="64" height="65" viewBox="0 0 64 65" fill="none" xmlns="http://www.w3.org/2000/svg">
<path d="M30.4889 0.536361C48.1142 -0.296969 63.0878 13.2944 63.9602 30.9178C64.8326 48.5413 51.2744 63.545 33.6529 64.4565C15.9762 65.3709 0.914934 51.7608 0.03985 34.082C-0.835234 16.4031 12.8082 1.37217 30.4889 0.536361ZM30.4436 60.5943C30.5027 59.2542 30.4708 57.6785 30.4729 56.3254L30.4703 48.0725C30.4711 47.2344 30.4238 46.1607 30.4491 45.3645C29.3884 45.2094 28.3472 45.1157 27.3006 44.929C23.1359 44.186 19.2669 42.3116 16.1252 39.4732C15.8676 39.2406 15.521 38.9599 15.2311 38.7668C15.5591 40.4964 15.8899 41.9815 16.4793 43.6511C18.7696 50.1388 23.2096 55.8386 28.886 59.7158C29.1414 59.8903 30.2127 60.6132 30.4342 60.6045L30.4436 60.5943ZM15.3747 26.355C16.2879 25.4722 17.2624 24.5653 18.2976 23.8229C21.6235 21.4374 26.4147 19.8109 30.5063 19.6167C30.4555 18.4143 30.4841 17.0464 30.4846 15.8326L30.5 7.88058L30.4822 5.64414C30.4804 5.36271 30.4982 4.6442 30.4505 4.39647L30.3901 4.36753C22.8417 8.97808 17.5871 16.167 15.5079 24.7847C15.4398 25.0672 15.1644 26.1953 15.2579 26.4046C15.2869 26.3932 15.3512 26.3702 15.3747 26.355ZM33.6277 60.6283C40.7026 56.633 46.2873 48.7711 48.3574 40.9877C48.4513 40.6344 48.9433 38.9441 48.8125 38.6873C43.9444 42.887 40.1476 44.7278 33.6313 45.3866C33.5799 48.726 33.5637 51.9674 33.6218 55.3118C33.6529 57.099 33.5695 58.8106 33.6277 60.6283ZM33.6142 19.614C39.4621 19.933 44.5626 22.3043 48.8613 26.2376C48.8948 25.6127 48.3976 24.0524 48.2172 23.4311C45.9664 15.6755 40.7088 8.37357 33.6194 4.385C33.5405 6.83 33.5792 9.43738 33.5769 11.8891C33.5746 14.4297 33.5418 17.0811 33.6142 19.614ZM3.2047 30.9405C5.62346 30.9577 8.28292 30.9946 10.6964 30.9516C10.9614 30.9735 11.1653 31.0148 11.4166 30.9374C11.5487 30.8224 11.5527 30.709 11.5632 30.5099C11.7058 27.8045 12.2407 24.9376 12.9136 22.3047C10.7437 22.238 7.73153 22.1821 5.57695 22.2795C5.4584 22.2897 5.14349 22.2819 5.10401 22.3847C4.10263 24.9939 3.3772 28.1945 3.2047 30.9405ZM59.0258 42.4954C59.8485 40.0399 60.4614 37.8916 60.6903 35.2818C60.715 35.0005 60.8034 34.303 60.7804 34.0521C60.3065 33.957 58.6129 33.9889 58.0506 33.989L52.6462 34.0089L52.5582 34.0697C52.5149 34.3722 52.4615 34.7163 52.4467 35.0212C52.3205 37.6398 51.8239 40.0388 51.135 42.5622C52.1449 42.5611 58.7458 42.645 59.0017 42.5246L59.0258 42.4954ZM51.1549 22.357C51.9361 25.3157 52.4718 27.8801 52.4947 30.9807L59.5013 30.9875C59.9362 30.9917 60.3939 31.0039 60.8265 30.985L60.8156 30.9243C60.7224 30.3849 60.6872 29.7901 60.6341 29.2421C60.4014 26.8405 59.869 24.6162 59.0108 22.3626C56.9237 22.3391 54.4997 22.2472 52.4377 22.3346L51.1549 22.357ZM3.66038 34.0079C3.49213 34.0157 3.38144 33.9948 3.25276 34.0734C3.0845 35.8664 4.26696 40.763 4.90568 42.5098C7.47625 42.5143 10.0929 42.5377 12.6601 42.5099L12.8574 42.4924C12.8973 42.3586 12.5793 41.1908 12.524 40.9729C11.9636 38.7623 11.6091 36.3234 11.5578 34.0463C9.15428 33.9308 6.08792 33.9425 3.66038 34.0079Z" fill="#292F40"/>
<path d="M31.4167 22.5876C36.8474 22.6143 41.8953 24.0779 45.9199 27.8706C46.9778 28.8676 47.7567 29.794 48.6622 30.9311L36.7794 30.9701C36.034 29.0652 34.5788 27.7836 32.5093 27.5455C29.9329 27.3145 28.2081 28.6962 27.215 30.9841C23.2849 30.925 19.3953 30.9924 15.4766 30.9595C15.7953 30.4359 16.1652 29.9373 16.5731 29.4813C20.5475 25.0384 25.5489 22.9497 31.4167 22.5876Z" fill="#FFB000"/>
<path d="M15.1846 33.9864L27.2003 34.0372C27.8006 35.4215 28.5413 36.4283 29.9397 37.1046C31.9644 38.0839 34.466 37.4224 35.8744 35.7097C36.2905 35.2037 36.5516 34.6237 36.8253 34.0374L48.72 33.9861C48.1267 34.8202 47.1528 35.8288 46.4403 36.5911C41.8878 40.9011 35.9646 42.9605 29.7056 42.2575C25.5223 41.7877 21.4257 40.0962 18.2555 37.3038C17.1025 36.2883 16.1398 35.1854 15.1846 33.9864Z" fill="#FFB000"/>
<path d="M50.0769 45.7169L57.6422 45.7117C57.03 46.967 56.418 47.8967 55.6046 49.0299C52.7307 53.0334 49.2589 56.0466 44.9159 58.335C43.1625 59.1728 41.2716 59.9558 39.387 60.4364C39.7025 60.1435 40.0317 59.8554 40.356 59.573C43.8829 56.5009 46.7957 52.7167 48.8439 48.5108C49.284 47.6069 49.6758 46.6429 50.0769 45.7169Z" fill="#FFB000"/>
<path d="M7.11715 45.6917C9.40289 45.6271 11.7438 45.6825 14.0329 45.7155C16.6534 52.094 19.2795 55.6131 24.3764 60.1884L23.6757 60.0275L23.2761 59.8995C16.2592 57.6049 9.7177 52.3277 6.36475 45.7064L7.11715 45.6917Z" fill="#FFB000"/>
<path d="M39.8823 4.90137C40.9834 5.05981 42.7766 5.81252 43.8148 6.26489C48.4849 8.2998 52.5573 11.762 55.5578 15.8561C56.2661 16.8229 57.1805 18.159 57.6068 19.2867L50.0849 19.257C48.156 14.6241 45.9867 11.0832 42.4833 7.41944C41.6289 6.52586 40.7639 5.75433 39.8823 4.90137Z" fill="#FFB000"/>
<path d="M24.0075 4.84277L24.0635 4.85404C24.0828 4.97476 22.1664 6.7119 21.8917 6.9894C18.3439 10.5745 16.0781 14.6654 14.0548 19.2215C11.8309 19.3451 8.93361 19.2616 6.66255 19.2512L6.59733 19.2105C6.57046 19.0503 6.62121 18.9693 6.70254 18.8202C9.45833 13.7697 13.6985 9.59678 18.808 6.94599C20.486 6.07546 22.2114 5.44697 24.0075 4.84277Z" fill="#FFB000"/>
</svg>
