<svg width="144" height="144" viewBox="0 0 144 144" fill="none" xmlns="http://www.w3.org/2000/svg">
<path d="M67.7853 0.125663C107.502 -2.2034 141.58 28.1225 143.878 67.8413C146.176 107.56 115.823 141.614 76.1027 143.881C36.4258 146.145 2.41783 115.834 0.122314 76.1587C-2.17301 36.4835 28.1121 2.45198 67.7853 0.125663Z" fill="#2A2A2A"/>
<path d="M70.7191 50.7063C72.3028 50.5884 75.0653 50.7524 76.662 50.904C88.5308 52.0738 99.6401 57.2763 108.138 65.6446C110.163 67.6262 111.799 69.6712 113.604 71.8499C104.141 85.4859 89.7103 92.1221 73.4035 93.3026C70.322 93.364 67.2413 93.1423 64.2005 92.6399C51.0024 90.5035 38.1009 82.7497 30.251 71.8862C40.6039 58.4006 53.8381 51.8842 70.7191 50.7063Z" fill="#E2E2E1"/>
<path d="M70.8296 53.0642C81.3164 52.3948 90.3605 60.3528 91.0307 70.8396C91.7009 81.3264 83.7435 90.3709 73.2569 91.0419C62.7692 91.7131 53.7235 83.7547 53.0531 73.2669C52.3829 62.7792 60.3418 53.7338 70.8296 53.0642Z" fill="#2A2A2A"/>
<path d="M71.1331 63.6616C75.7488 63.1383 79.9113 66.4651 80.4183 71.0826C80.9255 75.7001 77.584 79.8507 72.9648 80.3416C68.3684 80.8299 64.243 77.5089 63.7384 72.9143C63.2337 68.3197 66.5405 64.1825 71.1331 63.6616Z" fill="#FFB000"/>
<path d="M71.4022 66.6929C74.3087 66.3256 76.9646 68.3792 77.3406 71.2847C77.7167 74.1902 75.6711 76.8522 72.7668 77.237C69.8501 77.6235 67.1742 75.5671 66.7965 72.6493C66.419 69.7314 68.4832 67.0617 71.4022 66.6929Z" fill="#2A2A2A"/>
<path d="M39.1179 100.055C42.708 100.02 46.2982 100.021 49.888 100.06L68.9902 100.097L68.9751 123.343C68.9739 127.581 69.0324 131.989 68.9567 136.211L68.7715 136.3C67.2866 135.952 65.0733 135.346 63.7198 134.676C56.8342 131.268 51.5284 125.148 47.3959 118.805C44.0343 113.645 41.362 107.786 39.3394 101.98C39.2203 101.638 38.8327 100.432 38.898 100.127L39.1179 100.055Z" fill="#FFB000"/>
<path d="M77.7796 100.055C84.8512 99.9189 91.9233 100.093 98.9953 100.035C101.173 100.017 103.354 99.9844 105.53 100.062C102.378 109.102 98.1088 117.626 92.0281 125.08C89.1508 128.553 84.5417 132.489 80.5067 134.432C78.7325 135.287 77.0446 135.826 75.1704 136.357C75.0915 124.27 75.0917 112.182 75.1708 100.095L77.7796 100.055Z" fill="#FFB000"/>
<path d="M65.0207 8.71251C66.5186 8.16884 67.5141 7.9958 69.0653 7.73682C69.0553 8.22358 69.0608 8.91224 69.0268 9.38253C68.9778 11.4332 68.9654 13.4846 68.9903 15.5359L69.0009 43.8459L53.7766 43.883C48.9605 43.9108 43.5853 44.0201 38.7998 43.8255C42.2293 33.6483 48.4486 22.0642 56.1743 14.5053C58.3694 12.1262 62.0512 9.93011 65.0207 8.71251Z" fill="#FFB000"/>
<path d="M65.0202 8.71251C66.5182 8.16884 67.5137 7.9958 69.0648 7.73682C69.0548 8.22358 69.0603 8.91224 69.0264 9.38253C68.9773 11.4332 68.965 13.4846 68.9899 15.5359C68.1831 15.5324 66.897 15.7386 65.9998 15.7268C63.9947 15.7003 57.6151 15.5867 56.1738 14.5053C58.3689 12.1262 62.0507 9.93011 65.0202 8.71251Z" fill="#FFB000"/>
<path d="M65.0205 8.71251C66.5185 8.16884 67.514 7.9958 69.0651 7.73682C69.0551 8.22358 69.0606 8.91224 69.0267 9.38253C67.6592 9.26226 66.4167 8.89929 65.0205 8.71251Z" fill="#FFB000"/>
<path d="M75.1739 7.73926C80.379 8.75537 83.8992 11.0503 87.7488 14.587C94.1028 21.0427 98.2063 26.9574 101.987 35.2766C103.361 38.3012 104.414 40.6895 105.477 43.8746C95.3479 43.9276 85.219 43.928 75.0903 43.8762C75.1058 34.4047 74.9502 24.6425 75.136 15.2028C75.0762 12.8971 75.1684 10.0895 75.1739 7.73926Z" fill="#FFB000"/>
<path d="M75.1732 7.73926C80.3783 8.75537 83.8985 11.0503 87.7481 14.587C85.8244 15.6847 77.5564 15.1809 75.1353 15.2028C75.0755 12.8971 75.1677 10.0895 75.1732 7.73926Z" fill="#FFB000"/>
<path d="M38.7407 15.1621C41.1463 15.9636 43.8087 15.5616 46.2829 15.8822C46.4362 15.9022 46.518 16.036 46.5988 16.147C40.1777 24.4566 35.3012 33.8517 32.201 43.8853L12.668 43.8655C13.3645 42.1187 14.7161 39.8132 15.6835 38.1918C21.614 28.2521 29.0591 21.2919 38.7407 15.1621Z" fill="#FFB000"/>
<path d="M96.9648 15.373C97.5262 14.906 100.837 15.248 101.933 15.0652C102.856 14.9109 103.341 14.8291 104.288 14.5854C113.907 20.3729 121.438 27.4144 127.564 36.8973C128.973 39.079 130.325 41.3186 131.383 43.694C124.935 43.8284 118.485 43.8678 112.035 43.8127C109.21 35.5936 105.789 27.9968 100.904 20.7631C99.6227 18.8657 98.33 17.1996 96.9648 15.373Z" fill="#FFB000"/>
<path d="M12.4912 100.061C15.1083 99.9618 18.0265 100.076 20.677 100.059C24.5101 100.035 28.393 99.9835 32.2211 100.091C33.2378 102.69 34.0677 105.394 35.0806 107.977C37.5677 114.318 41.2263 121.226 45.3612 126.665C45.2523 126.894 45.2158 127.064 44.9011 127.129C43.0565 127.514 39.1066 128.109 37.4015 127.726C36.5413 127.302 33.419 125.123 32.6084 124.515C24.7814 118.642 16.4548 109.097 12.4912 100.061Z" fill="#FFB000"/>
<path d="M111.849 100.096C113.013 100.049 114.229 99.9873 115.391 100.014C120.786 100.137 126.192 99.8818 131.585 100.029C127.18 109.268 120.736 117.387 112.737 123.773C111.331 124.885 109.277 126.246 107.76 127.263L107.53 127.159C106.661 125.912 101.051 125.734 99.4668 125.762C99.8262 125.213 100.227 124.752 100.332 124.132C105.317 116.303 109.218 109.127 111.849 100.096Z" fill="#FFB000"/>
<path d="M10.0863 49.7793L30.5025 49.8062C29.7383 52.5608 29.1183 55.3535 28.6449 58.1728C28.2719 60.3922 28.1661 63.1961 27.4916 65.2744C27.3038 65.8526 25.8802 67.5032 25.4154 68.0679L24.6807 68.9178C18.7243 69.178 12.1279 68.994 6.11035 68.9955C6.41426 61.7003 7.73271 56.6635 10.0863 49.7793Z" fill="#FFB000"/>
<path d="M6.37066 74.9416C8.48175 74.8339 10.7092 74.9698 12.8417 74.9363C16.8306 74.8735 20.7147 74.825 24.7042 74.9877C27.9993 78.5002 27.9648 79.3686 28.4315 84.1311C28.6582 86.4429 29.4273 89.2864 29.9713 91.5648C30.113 92.1583 30.6029 93.3989 30.3203 93.9441L9.81551 93.9785C7.98302 89.1447 6.91433 83.7866 6.44208 78.6474C6.3738 77.9036 5.92275 75.3663 6.37066 74.9416Z" fill="#FFB000"/>
<path d="M119.25 74.9979C121.294 74.8925 123.673 74.9424 125.743 74.943L137.878 74.9961C137.76 81.2745 136.11 88.1061 134.066 94.0265L132.313 94.0234L113.616 94.0179C113.752 93.3477 113.929 92.5943 114.113 91.9311C115.376 87.3794 115.739 82.7147 116.509 78.0862L119.25 74.9979Z" fill="#FFB000"/>
<path d="M113.647 49.8062L134.057 49.8628C134.592 51.847 135.271 53.8345 135.812 55.8653C137.017 60.3912 137.506 64.2918 137.851 68.9088L119.334 68.8937C118.324 67.751 117.481 66.8875 116.4 65.8122C115.96 63.2555 115.823 60.5704 115.388 57.986C114.919 55.203 114.263 52.5547 113.647 49.8062Z" fill="#FFB000"/>
<path d="M91.2607 135.115C92.8878 133.227 94.6051 131.558 96.2079 129.594C97.5246 127.979 98.9917 125.574 100.332 124.132C100.227 124.752 99.8258 125.214 99.4663 125.762C101.05 125.734 106.66 125.912 107.53 127.159L107.76 127.263C107.46 127.575 105.817 128.571 105.358 128.849C100.818 131.592 96.3026 133.51 91.2607 135.115Z" fill="#FFB000"/>
<path d="M95.9883 49.8241C98.3087 49.6937 100.732 49.82 103.063 49.777C104.426 49.7519 105.869 49.7655 107.229 49.8328C108.117 52.6727 108.738 55.2661 109.09 58.241C108.022 57.6379 105.409 55.4695 104.141 54.5851C101.346 52.636 98.9832 51.3829 95.9883 49.8241Z" fill="#FFB000"/>
<path d="M36.9636 49.803C40.7071 49.7504 44.4509 49.7475 48.1944 49.7942C45.953 50.8723 43.7305 52.1293 41.5768 53.3697C39.7345 54.4443 38.0884 55.6966 36.4156 57.009C35.9499 57.3743 35.4906 57.7376 34.9824 58.0433C35.511 55.2665 36.1722 52.5166 36.9636 49.803Z" fill="#FFB000"/>
<path d="M109.007 85.8657C109.146 86.914 107.612 92.6438 107.269 94.0117C103.807 94.017 100.346 93.9985 96.8846 93.9561C96.8681 93.9124 96.8514 93.8688 96.835 93.8251C97.2432 93.4888 98.1375 93.074 98.6549 92.7956C99.6985 92.2469 100.725 91.6651 101.731 91.0514C104.354 89.4283 106.547 87.707 109.007 85.8657Z" fill="#FFB000"/>
<path d="M45.3611 126.665C46.3972 127.71 47.6723 129.422 48.7375 130.6C50.2135 132.231 51.7548 133.572 53.2226 135.112C48.8993 133.776 44.7301 131.985 40.7852 129.769C39.8362 129.245 38.2548 128.358 37.4014 127.726C39.1065 128.109 43.0564 127.514 44.901 127.129C45.2157 127.063 45.2522 126.894 45.3611 126.665Z" fill="#FFB000"/>
<path d="M35.0957 85.8521C36.9398 87.1579 38.5319 88.7016 40.428 89.9904C42.6358 91.4912 45.2242 92.5353 47.3936 94C44.0702 94.0804 40.2471 93.9819 36.8805 93.9801C36.2819 91.5163 35.433 88.3037 35.0957 85.8521Z" fill="#FFB000"/>
<path d="M38.7412 15.1621C41.8888 13.0924 49.381 9.71526 53.0793 8.93164C51.6122 10.4108 50.1994 11.9427 48.8432 13.5242C48.3047 14.1503 47.1287 15.6532 46.5993 16.147C46.5185 16.036 46.4367 15.9022 46.2834 15.8822C43.8092 15.5616 41.1468 15.9636 38.7412 15.1621Z" fill="#FFB000"/>
<path d="M91.1982 8.8374C92.5338 9.32162 93.9688 9.71755 95.297 10.2351C98.2861 11.3997 101.552 12.916 104.289 14.5856C103.342 14.8293 102.857 14.9111 101.934 15.0653C100.837 15.2482 97.527 14.9062 96.9657 15.3732C96.7738 15.1962 96.4006 14.6982 96.2238 14.4795C94.6356 12.5144 92.9191 10.687 91.1982 8.8374Z" fill="#FFB000"/>
</svg>
