<svg width="206" height="205" viewBox="0 0 206 205" fill="#000000" stroke="#000000" xmlns="http://www.w3.org/2000/svg">
<path stroke="#000000" fill-rule="evenodd" clip-rule="evenodd" d="M95.0972 64.1338C83.749 57.4337 70.9688 66.5451 70.9688 78.6957V126.304C70.9688 138.454 83.749 147.566 95.0972 140.866L135.416 117.062C146.292 110.64 146.292 94.3598 135.416 87.9382L95.0972 64.1338ZM83.7812 78.6957C83.7812 77.0004 84.6025 75.8145 85.5705 75.2092C86.5069 74.6235 87.5558 74.56 88.5834 75.1669L128.902 98.9714C130.034 99.6402 130.76 100.918 130.76 102.5C130.76 104.082 130.034 105.36 128.902 106.029L88.5834 129.833C87.5558 130.44 86.5069 130.377 85.5705 129.791C84.6025 129.186 83.7812 127.999 83.7812 126.304V78.6957Z" fill="#000000"/>
<path stroke="#000000" fill-rule="evenodd" clip-rule="evenodd" d="M103 10.6771C52.2875 10.6771 11.177 51.7876 11.177 102.5C11.177 153.213 52.2875 194.323 103 194.323C153.713 194.323 194.823 153.213 194.823 102.5C194.823 51.7876 153.713 10.6771 103 10.6771ZM23.9895 102.5C23.9895 58.8638 59.3637 23.4896 103 23.4896C146.636 23.4896 182.01 58.8638 182.01 102.5C182.01 146.136 146.636 181.51 103 181.51C59.3637 181.51 23.9895 146.136 23.9895 102.5Z" fill="#000000"/>
</svg>
