<svg width="33" height="32" viewBox="0 0 33 32" fill="none" xmlns="http://www.w3.org/2000/svg">
<path d="M22.5002 7.99998V23.3333C22.5002 24.7478 21.9383 26.1044 20.9381 27.1045C19.9379 28.1047 18.5813 28.6666 17.1668 28.6666C15.7523 28.6666 14.3958 28.1047 13.3956 27.1045C12.3954 26.1044 11.8335 24.7478 11.8335 23.3333V6.66665C11.8335 5.78259 12.1847 4.93475 12.8098 4.30962C13.4349 3.6845 14.2828 3.33331 15.1668 3.33331C16.0509 3.33331 16.8987 3.6845 17.5239 4.30962C18.149 4.93475 18.5002 5.78259 18.5002 6.66665V20.6666C18.5002 21.0203 18.3597 21.3594 18.1096 21.6095C17.8596 21.8595 17.5205 22 17.1668 22C16.8132 22 16.4741 21.8595 16.224 21.6095C15.974 21.3594 15.8335 21.0203 15.8335 20.6666V7.99998H13.8335V20.6666C13.8335 21.5507 14.1847 22.3985 14.8098 23.0237C15.4349 23.6488 16.2828 24 17.1668 24C18.0509 24 18.8987 23.6488 19.5239 23.0237C20.149 22.3985 20.5002 21.5507 20.5002 20.6666V6.66665C20.5002 5.25216 19.9383 3.8956 18.9381 2.89541C17.9379 1.89522 16.5813 1.33331 15.1668 1.33331C13.7523 1.33331 12.3958 1.89522 11.3956 2.89541C10.3954 3.8956 9.8335 5.25216 9.8335 6.66665V23.3333C9.8335 25.2782 10.6061 27.1435 11.9814 28.5188C13.3566 29.894 15.2219 30.6666 17.1668 30.6666C19.1118 30.6666 20.977 29.894 22.3523 28.5188C23.7275 27.1435 24.5002 25.2782 24.5002 23.3333V7.99998H22.5002Z" fill="#c115c9"/>
</svg>
