<svg width="320" height="320" viewBox="0 0 320 320" fill="none" xmlns="http://www.w3.org/2000/svg">
<path d="M153.974 76.0514C139.664 71.0358 138.706 50.5719 152.189 43.9259C171.134 34.5868 190.051 63.1008 166.334 76.0514C166.326 78.7039 166.241 81.7727 166.334 84.3914L189.684 84.3877C201.073 84.382 206.574 83.9564 217.501 88.4489C217.493 86.7527 217.481 85.0589 217.501 83.3627C218.521 77.6845 216.192 79.0208 221.55 79.6514C224.919 80.0476 227.259 79.3639 230.433 78.5633C230.367 79.8014 230.296 95.107 230.433 95.5827C240.034 103.858 242.739 108.664 246.84 120.315C260.781 120.108 275.842 120.066 275.968 139.023L275.973 158.529C276.001 174.551 275.299 186.74 255.645 186.741L248.12 186.731C249.928 212.067 230.942 232.181 206.413 235.029C206.444 247.896 205.917 256.855 195.761 266.385C184.375 277.071 176.421 274.704 163.216 275.37C147.333 275.495 133.85 277.186 121.805 264.071C113.371 254.888 113.416 246.628 113.748 235.029C111.262 234.382 108.685 234.156 106.2 233.532C83.1139 227.737 72.8951 208.758 71.4939 186.731C69.992 186.994 63.0801 187.051 60.9831 187.055C50.2115 187.075 44.2145 176.931 44.1624 167.034L44.156 148.121C44.1497 143.233 43.628 136.775 45.2679 132.206C48.7796 122.421 56.0287 120.296 65.1688 120.307L73.0376 120.315C76.8751 108.941 81.4226 102.902 89.8232 94.9139C89.8251 89.9539 89.6257 83.8333 89.8232 78.9827C91.3051 78.3627 96.0857 80.3208 98.2114 79.7658C101.021 79.0326 102.231 78.3514 102.351 80.997C102.373 82.9726 102.223 85.8927 102.351 87.7014C112.403 84.6152 115.966 84.3833 126.642 84.3864L144.803 84.397C147.586 84.3995 151.282 84.5245 153.974 84.3914V76.0514Z" fill="#0F0E0E"/>
<path d="M100.714 117.322L208.238 117.318C222.872 117.318 235.188 117.779 235.249 136.013L235.258 179.945C235.283 198.317 226.681 199.925 210.474 199.924L196.016 199.916H142.659C136.969 206.882 126.742 216.81 119.995 222.736C117.894 224.583 113.458 222.287 113.116 219.486C112.868 217.465 112.938 215.113 112.938 212.912L112.951 199.916L104.428 199.925C85.4695 199.953 84.5282 193.22 84.5257 175.873L84.5176 139.017C84.5182 126.769 86.932 118.68 100.714 117.322Z" fill="#F1B131"/>
<path d="M111.661 132.03L199.742 132.024C221.417 132.025 226.019 136.827 225.949 158.803C225.939 162.028 226.178 165.437 225.63 168.63C223.579 177.293 217.292 181.655 208.916 182.328L120.353 182.334C100.271 182.333 94.2549 179.437 94.4993 158.11C94.6543 144.561 94.7762 133.453 111.661 132.03Z" fill="#0F0E0E"/>
<path d="M185.327 145.403C191.846 144.617 197.778 149.239 198.608 155.753C199.438 162.266 194.857 168.229 188.348 169.104C181.778 169.986 175.746 165.35 174.908 158.774C174.069 152.198 178.745 146.197 185.327 145.403Z" fill="#F1B131"/>
<path d="M132.185 145.345C138.77 144.686 144.635 149.508 145.262 156.096C145.889 162.684 141.04 168.526 134.449 169.122C127.902 169.715 122.107 164.904 121.484 158.361C120.861 151.816 125.644 145.999 132.185 145.345Z" fill="#F1B131"/>
<path d="M127.805 248.166H192.21C191.139 251.441 189.201 254.259 186.807 256.699C178.13 264.579 166.19 261.247 155.472 261.968C151.651 262.225 146.571 261.98 142.783 261.551C136.827 260.876 128.77 254.172 127.805 248.166Z" fill="#F1B131"/>
<path d="M248.585 133.795C253.115 133.777 262.223 131.907 262.251 138.118C262.276 143.953 263.701 168.575 260.782 171.795C258.316 173.596 251.166 172.829 248.12 172.816L248.116 147.353C248.116 143.781 247.936 137.396 248.224 133.988L248.585 133.795Z" fill="#F1B131"/>
<path d="M62.138 133.794H71.4934V172.816C69.6077 173.198 69.2827 173.12 67.3796 172.816C58.6767 172.603 57.5602 175.108 57.6141 165.089L57.6201 144.293C57.6112 139.915 56.1514 134.233 62.138 133.794Z" fill="#F1B131"/>
<path d="M89.8223 78.9824C88.6479 76.3768 82.8698 75.8468 81.4498 67.0411C78.5573 49.0998 102.964 41.8476 110.396 58.2162C114.119 66.4143 110.04 74.8218 102.35 78.563C102.367 79.2893 102.421 80.298 102.35 80.9968C102.23 78.3511 101.02 79.0324 98.2104 79.7655C96.0848 80.3205 91.3042 78.3624 89.8223 78.9824Z" fill="#0F0E0E"/>
<path d="M217.501 78.5633C204.435 71.2896 206.503 54.1149 220.192 50.5487C236.29 46.3549 246.893 68.0052 230.433 78.5633L230.448 90.4296C230.45 91.3808 230.534 94.8658 230.433 95.5827C230.296 95.1071 230.367 79.8014 230.433 78.5633C227.259 79.3639 224.919 80.0477 221.55 79.6514C216.192 79.0208 218.521 77.6846 217.501 83.3627V78.5633Z" fill="#0F0E0E"/>
</svg>
