<svg width="52" height="32" viewBox="0 0 52 32" fill="none" xmlns="http://www.w3.org/2000/svg">
<g clip-path="url(#clip0_246_4)">
<path d="M7.49935 2.5L4.16602 5.83333H6.66602V11.6667H8.33268V5.83333H10.8327M13.3327 14.1667V8.33333H11.666V14.1667H9.16602L12.4993 17.5L15.8327 14.1667H13.3327Z" fill="#E19F11"/>
<g clip-path="url(#clip1_246_4)">
<path d="M31.4927 14.3867C33.4127 18.16 36.506 21.2533 40.2793 23.1733L43.2127 20.24C43.586 19.8667 44.106 19.76 44.5727 19.9067C46.066 20.4 47.666 20.6667 49.3327 20.6667C49.6863 20.6667 50.0254 20.8071 50.2755 21.0572C50.5255 21.3072 50.666 21.6464 50.666 22V26.6667C50.666 27.0203 50.5255 27.3594 50.2755 27.6095C50.0254 27.8595 49.6863 28 49.3327 28C43.3211 28 37.5558 25.6119 33.3049 21.3611C29.0541 17.1103 26.666 11.3449 26.666 5.33333C26.666 4.97971 26.8065 4.64057 27.0565 4.39052C27.3066 4.14048 27.6457 4 27.9993 4H32.666C33.0196 4 33.3588 4.14048 33.6088 4.39052C33.8589 4.64057 33.9993 4.97971 33.9993 5.33333C33.9993 7 34.266 8.6 34.7593 10.0933C34.906 10.56 34.7993 11.08 34.426 11.4533L31.4927 14.3867Z" fill="#E19F11"/>
</g>
</g>
<defs>
<clipPath id="clip0_246_4">
<rect width="52" height="32" fill="white"/>
</clipPath>
<clipPath id="clip1_246_4">
<rect width="32" height="32" fill="white" transform="translate(20)"/>
</clipPath>
</defs>
</svg>
