<svg width="52" height="32" viewBox="0 0 52 32" fill="none" xmlns="http://www.w3.org/2000/svg">
<g clip-path="url(#clip0_254_89)">
<path d="M7.49935 2.5L4.16602 5.83333H6.66602V11.6667H8.33268V5.83333H10.8327M13.3327 14.1667V8.33333H11.666V14.1667H9.16602L12.4993 17.5L15.8327 14.1667H13.3327Z" fill="#E19F11"/>
<path d="M42.666 15.9998V3.99984C42.666 3.64622 42.5255 3.30708 42.2755 3.05703C42.0254 2.80698 41.6863 2.6665 41.3327 2.6665H23.9993C23.6457 2.6665 23.3066 2.80698 23.0565 3.05703C22.8065 3.30708 22.666 3.64622 22.666 3.99984V22.6665L27.9993 17.3332H41.3327C41.6863 17.3332 42.0254 17.1927 42.2755 16.9426C42.5255 16.6926 42.666 16.3535 42.666 15.9998ZM47.9993 7.99984H45.3327V19.9998H27.9993V22.6665C27.9993 23.0201 28.1398 23.3593 28.3899 23.6093C28.6399 23.8594 28.9791 23.9998 29.3327 23.9998H43.9993L49.3327 29.3332V9.33317C49.3327 8.97955 49.1922 8.64041 48.9422 8.39036C48.6921 8.14031 48.353 7.99984 47.9993 7.99984Z" fill="#E19F11"/>
</g>
<defs>
<clipPath id="clip0_254_89">
<rect width="52" height="32" fill="white"/>
</clipPath>
</defs>
</svg>
